<svg xmlns="http://www.w3.org/2000/svg" fill="none" viewBox="0 0 512 512">
    <path fill="#fff" fill-rule="evenodd"
        d="M352 395c7-23-6-70-6-70s-9 38-23 53a74 74 0 0 1-47 23c17-9 29-26 29-46 0-28-23-51-52-51s-51 23-51 51a50 50 0 0 0 5 22c-18-15-21-37-21-37s-20 82 35 121 162 6 162 6-154 108-268-10C17 356 90 222 90 222s-3 12-3 27c0 14 7 25 7 25s24-49 42-69c17-19 38-34 57-47 14-10 27-19 34-28C269 84 243 0 243 0s47 41 60 94c5 20 2 43-1 64-5 33-9 60 25 58 54-3 7-86 7-86s122 65 113 177c-9 113-134 138-134 138s33-26 39-50Z"
        clip-rule="evenodd" />
</svg>