<svg xmlns="http://www.w3.org/2000/svg" fill="none" viewBox="0 0 512 512">
    <path fill="#fff" fill-rule="evenodd" d="m384.304 39.042 1.575 138.35-120.67 57.927-1.488-130.629 120.583-65.648Zm120.965 218.005-119.455 68.327-119.526-68.435 119.464-62.752 119.517 62.86Zm-260.229 0-119.455 68.327L6.059 256.939l119.464-62.752 119.517 62.86ZM124.243 38.475l123.986 61.406-3.17 133.816-117.066-57.978-3.75-137.244Zm263.435 435.05-123.986-61.406 3.17-133.817 117.066 57.979 3.75 137.244Zm-259.153 1.245-1.576-138.35 120.671-57.927 1.488 130.628-120.583 65.649Z" clip-rule="evenodd"/>
  </svg>